<?xml version="1.0" encoding="UTF-8" standalone="no"?>
<svg width="385px" height="266px" viewBox="0 0 385 266" version="1.1" xmlns="http://www.w3.org/2000/svg"
     xmlns:xlink="http://www.w3.org/1999/xlink">
    <!-- Generator: Sketch 3.2.2 (9983) - http://www.bohemiancoding.com/sketch -->
    <title>Image</title>
    <desc>Created with Sketch.</desc>
    <defs>
        <rect id="path-1" x="0" y="0" width="385" height="266"></rect>
        <filter x="-50%" y="-50%" width="200%" height="200%" filterUnits="objectBoundingBox" id="filter-3">
            <feOffset dx="2" dy="2" in="SourceAlpha" result="shadowOffsetInner1"></feOffset>
            <feGaussianBlur stdDeviation="2" in="shadowOffsetInner1" result="shadowBlurInner1"></feGaussianBlur>
            <feComposite in="shadowBlurInner1" in2="SourceAlpha" operator="arithmetic" k2="-1" k3="1"
                         result="shadowInnerInner1"></feComposite>
            <feColorMatrix values="0 0 0 0 0   0 0 0 0 0   0 0 0 0 0  0 0 0 0.243478261 0" in="shadowInnerInner1"
                           type="matrix" result="shadowMatrixInner1"></feColorMatrix>
            <feMerge>
                <feMergeNode in="SourceGraphic"></feMergeNode>
                <feMergeNode in="shadowMatrixInner1"></feMergeNode>
            </feMerge>
        </filter>
        <filter x="-50%" y="-50%" width="200%" height="200%" filterUnits="objectBoundingBox" id="filter-4">
            <feOffset dx="-2" dy="2" in="SourceAlpha" result="shadowOffsetInner1"></feOffset>
            <feGaussianBlur stdDeviation="2" in="shadowOffsetInner1" result="shadowBlurInner1"></feGaussianBlur>
            <feComposite in="shadowBlurInner1" in2="SourceAlpha" operator="arithmetic" k2="-1" k3="1"
                         result="shadowInnerInner1"></feComposite>
            <feColorMatrix values="0 0 0 0 0   0 0 0 0 0   0 0 0 0 0  0 0 0 0.245 0" in="shadowInnerInner1"
                           type="matrix" result="shadowMatrixInner1"></feColorMatrix>
            <feMerge>
                <feMergeNode in="SourceGraphic"></feMergeNode>
                <feMergeNode in="shadowMatrixInner1"></feMergeNode>
            </feMerge>
        </filter>
        <linearGradient x1="50%" y1="2.55102041%" x2="50%" y2="100%" id="linearGradient-5">
            <stop stop-color="#FFC028" offset="1.53061224%"></stop>
            <stop stop-color="#F4A642" offset="100%"></stop>
        </linearGradient>
        <filter x="-50%" y="-50%" width="200%" height="200%" filterUnits="objectBoundingBox" id="filter-6">
            <feOffset dx="3" dy="3" in="SourceAlpha" result="shadowOffsetInner1"></feOffset>
            <feGaussianBlur stdDeviation="1" in="shadowOffsetInner1" result="shadowBlurInner1"></feGaussianBlur>
            <feComposite in="shadowBlurInner1" in2="SourceAlpha" operator="arithmetic" k2="-1" k3="1"
                         result="shadowInnerInner1"></feComposite>
            <feColorMatrix values="0 0 0 0 1   0 0 0 0 0.870588235   0 0 0 0 0.576470588  0 0 0 0.35 0"
                           in="shadowInnerInner1" type="matrix" result="shadowMatrixInner1"></feColorMatrix>
            <feMerge>
                <feMergeNode in="SourceGraphic"></feMergeNode>
                <feMergeNode in="shadowMatrixInner1"></feMergeNode>
            </feMerge>
            <feGaussianBlur stdDeviation="0" in="SourceGraphic" result="blur"></feGaussianBlur>
        </filter>
        <linearGradient x1="50%" y1="0%" x2="50%" y2="100%" id="linearGradient-7">
            <stop stop-color="#FDC93C" offset="1.02040816%"></stop>
            <stop stop-color="#FFB23B" offset="97.4489796%"></stop>
        </linearGradient>
        <filter x="-50%" y="-50%" width="200%" height="200%" filterUnits="objectBoundingBox" id="filter-8">
            <feOffset dx="0" dy="2" in="SourceAlpha" result="shadowOffsetOuter1"></feOffset>
            <feGaussianBlur stdDeviation="1" in="shadowOffsetOuter1" result="shadowBlurOuter1"></feGaussianBlur>
            <feColorMatrix values="0 0 0 0 0   0 0 0 0 0   0 0 0 0 0  0 0 0 0.136956522 0" in="shadowBlurOuter1"
                           type="matrix" result="shadowMatrixOuter1"></feColorMatrix>
            <feMerge>
                <feMergeNode in="shadowMatrixOuter1"></feMergeNode>
                <feMergeNode in="SourceGraphic"></feMergeNode>
            </feMerge>
        </filter>
        <path id="path-9"
              d="M55.5001345,109.013697 C58.6965888,99.2794366 95.0067879,67.9334291 95.0067917,42.643741 C95.0067957,16.0069027 73.5639862,0.210490574 48.0266835,0.210490574 C22.408069,0.210490574 1.0465752,20.9810226 1.0465752,42.643741 C1.0465752,70.9851628 37.3242534,99.2431689 40.5532324,109.013697 L55.5001345,109.013697 Z"></path>
        <path id="path-10"
              d="M40.2001419,109.010795 C31.6990562,96.2626728 0.982488543,64.1522805 0.982488543,41.1535331 C0.982488543,14.5166949 22.4412556,0.207587402 47.9767124,0.207587402 C48.0291095,30.0740675 47.9767124,96.3025791 47.9767124,109.010794 C46.6163529,109.060664 44.0339644,108.930957 40.2001419,109.010795 Z"></path>
        <path id="path-11"
              d="M55.9740836,109.010795 C66.7434479,94.8770668 95.0067917,63.9991012 95.0067917,41.0958778 C95.0067917,14.4590395 73.5475021,0.207587402 48.0120453,0.207587402 C47.961455,30.0740675 48.0120453,96.3025791 48.0120453,109.010794 C49.397778,109.061594 47.9549058,108.928328 55.9740836,109.010795 Z"></path>
        <path id="path-12"
              d="M53.9359963,109.010795 C61.9568076,94.8770668 83.0067917,63.9991012 83.0067917,41.0958778 C83.0067917,14.4590395 67.0243337,0.207587402 48.0060263,0.207587402 C47.9683477,30.0740675 48.0060263,96.3025791 48.0060263,109.010794 C49.0380929,109.061594 47.96347,108.928328 53.9359963,109.010795 Z"></path>
        <path id="path-13"
              d="M18.9359963,109.010795 C26.9568076,94.8770668 48.0067917,63.9991012 48.0067917,41.0958778 C48.0067917,14.4590395 32.0243337,0.207587402 13.0060263,0.207587402 C12.9683477,30.0740675 13.0060263,96.3025791 13.0060263,109.010794 C14.0380929,109.061594 12.96347,108.928328 18.9359963,109.010795 Z"></path>
        <path id="path-14"
              d="M28.7691509,56.965885 C30.4319142,51.9018547 49.3201163,34.2388571 49.3201165,22.438406 C49.3201167,8.58118907 38.1657848,0.363460388 24.8815368,0.363460388 C11.5549913,0.363460388 0.44295717,11.1688632 0.44295717,22.438406 C0.44295717,37.1823942 19.3142404,51.8829873 20.9939228,56.965885 L28.7691509,56.965885 Z"></path>
        <path id="path-15"
              d="M20.811721,56.9643753 C16.3892221,50.3324511 0.409617525,33.6277407 0.409617525,21.6631588 C0.409617525,7.80594189 11.5730592,0.361950078 24.8573071,0.361950078 C24.8845655,15.8993156 24.8573071,50.3532115 24.8573071,56.9643747 C24.1496106,56.9903186 22.806181,56.9228414 20.811721,56.9643753 Z"></path>
        <path id="path-16"
              d="M29.0177599,56.9643753 C34.6202798,49.6116207 49.3236497,33.5480525 49.3236497,21.6331649 C49.3236497,7.775948 38.1599362,0.361950078 24.8756883,0.361950078 C24.8493698,15.8993156 24.8756883,50.3532115 24.8756883,56.9643747 C25.5965846,56.9908025 24.8459628,56.921474 29.0177599,56.9643753 Z"></path>
        <path id="path-17"
              d="M27.9574907,56.9643753 C32.1301377,49.6116207 43.0809192,33.5480525 43.0809192,21.6331649 C43.0809192,7.775948 34.7664043,0.361950078 24.872557,0.361950078 C24.8529556,15.8993156 24.872557,50.3532115 24.872557,56.9643747 C25.4094665,56.9908025 24.8504181,56.921474 27.9574907,56.9643753 Z"></path>
        <path id="path-18"
              d="M21.7793098,56.9643753 C17.6066628,49.6116207 6.65588128,33.5480525 6.65588128,21.6331649 C6.65588128,7.775948 14.9703961,0.361950078 24.8642434,0.361950078 C24.8838449,15.8993156 24.8642434,50.3532115 24.8642434,56.9643747 C24.327334,56.9908025 24.8863824,56.921474 21.7793098,56.9643753 Z"></path>
    </defs>
    <g id="Page-1" stroke="none" stroke-width="1" fill="none" fill-rule="evenodd">
        <g id="Image">
            <mask id="mask-2" fill="white">
                <use xlink:href="#path-1"></use>
            </mask>
            <use id="background-3" fill="#7FBECF" xlink:href="#path-1"></use>
            <path d="M288.5,418 C390.948821,418 474,364.27417 474,298 C474,231.72583 390.948821,178 288.5,178 C186.051179,178 103,231.72583 103,298 C103,364.27417 186.051179,418 288.5,418 Z"
                  id="ellipse-1" fill="#8EB244" filter="url(#filter-3)" mask="url(#mask-2)"></path>
            <path d="M25.5,443 C127.948821,443 211,389.27417 211,323 C211,256.72583 127.948821,203 25.5,203 C-76.9488211,203 -160,256.72583 -160,323 C-160,389.27417 -76.9488211,443 25.5,443 Z"
                  id="ellipse-1-2" fill="#8EB244" filter="url(#filter-4)" mask="url(#mask-2)"></path>
            <g id="sun-2" mask="url(#mask-2)">
                <g transform="translate(21.000000, 20.000000)">
                    <path d="M53.5073515,29.0641686 L47.6947002,33.3075121 L50.2255804,40.0250139 C50.5740154,40.9514727 50.0527135,41.7914981 49.0587285,41.902241 L41.8793478,42.7017506 L40.6800833,49.7541821 C40.5153195,50.7292598 39.6401806,51.1992418 38.7245259,50.8048891 L32.0961587,47.9363781 L27.5043802,53.4438112 C26.8696344,54.2082073 25.8729483,54.1811968 25.2787182,53.3843882 L21.0029621,47.639263 L14.2341405,50.1404317 C13.2968774,50.4861657 12.4487489,49.9675648 12.335305,48.984384 L11.5303933,41.8752305 L4.40773455,40.6894713 C3.42455375,40.5274085 2.94916963,39.6576716 3.34892446,38.7501201 L6.24444593,32.1838769 L0.677589813,27.6299131 C-0.0922083407,26.9978683 -0.0651978792,26.0119865 0.737012828,25.4258594 L6.54156101,21.185217 L4.0187839,14.4893236 C3.67034895,13.5628647 4.19165086,12.7201383 5.18563584,12.6093955 L12.3596144,11.8125868 L13.5561779,4.75745429 C13.7209417,3.78237662 14.5987817,3.31239459 15.5144363,3.70674733 L22.1238963,6.56715521 L26.7264789,1.04351582 C27.3639258,0.279119764 28.3606118,0.306130225 28.9521409,1.10293884 L33.2468043,6.87237342 L40.0102239,4.37390573 C40.9474869,4.02817182 41.7956154,4.54407164 41.9090593,5.52725244 L42.7139711,12.6364059 L49.8366298,13.8221652 C50.8198106,13.986929 51.2951947,14.8539648 50.8954399,15.7615163 L48.0080216,22.3115532 L53.5667745,26.860115 C54.3392737,27.4894587 54.3122633,28.4753406 53.5073515,29.0641686 L53.5073515,29.0641686 Z"
                          id="path-1" stroke="none" fill="url(#linearGradient-5)" filter="url(#filter-6)"></path>
                    <circle id="circle-1" stroke="#F99B21" stroke-width="1" fill="url(#linearGradient-7)"
                            cx="27.1231943" cy="27.2436635" r="13.2493187"></circle>
                </g>
            </g>
            <path d="M88.7368524,76.999 L51.7543891,76.999 C45.7691726,76.8564948 41,72.1158233 41,66.166233 C41,61.3044321 44.2134913,57.1884082 48.654902,55.7681068 C48.654902,55.692104 48.6430266,55.6161013 48.6430266,55.5400985 C48.6430266,49.8113912 53.3433216,45.1657231 59.1409064,45.1657231 C61.3568616,45.1657231 63.4089359,45.8497479 65.1047472,47.0064147 C67.0760686,42.3061196 71.7644882,39 77.2366862,39 C84.4878236,39 90.3661613,44.8094602 90.3661613,51.9750945 C90.3661613,53.9321653 89.9243953,55.7847324 89.1382419,57.4472925 C94.1449231,57.9745616 98.0448142,62.1570879 98.0448142,67.244522 C98.0448142,72.4412101 93.9002892,76.6261115 88.7368524,76.999 Z"
                  id="path-1" fill="#F7F6F1" filter="url(#filter-8)" mask="url(#mask-2)"></path>
            <g id="Balloon-big" mask="url(#mask-2)">
                <g transform="translate(270.000000, 9.000000)">
                    <path d="M54.025641,115.114286 L54.025641,122.889796 C54.025641,124.608184 52.6822514,126 51.023653,126 L45.0196768,126 C43.3610784,126 42.0176887,124.608184 42.0176887,122.889796 L42.0176887,115.114286 L54.025641,115.114286 Z"
                          id="path-1" fill="#6B6761" fill-rule="evenodd"></path>
                    <g id="path-1">
                        <use fill="#E0564B" fill-rule="evenodd" xlink:href="#path-9"></use>
                        <use fill="none" xlink:href="#path-9"></use>
                    </g>
                    <g id="path-1">
                        <use fill="#E0564B" fill-rule="evenodd" xlink:href="#path-10"></use>
                        <use fill="none" xlink:href="#path-10"></use>
                    </g>
                    <g id="path-1">
                        <use fill="#EE7369" fill-rule="evenodd" xlink:href="#path-11"></use>
                        <use fill="none" xlink:href="#path-11"></use>
                    </g>
                    <g id="path-1-4">
                        <use fill="#E0564B" fill-rule="evenodd" xlink:href="#path-12"></use>
                        <use fill="none" xlink:href="#path-12"></use>
                    </g>
                    <g id="path-1-6">
                        <use fill="#EE7369" fill-rule="evenodd"
                             transform="translate(30.498036, 54.615148) scale(-1, 1) translate(-30.498036, -54.615148) "
                             xlink:href="#path-13"></use>
                        <use fill="none" xlink:href="#path-13"></use>
                    </g>
                    <path d="M56.0017218,109.013697 C62.8114295,99.8818023 70.6022539,90.403425 75.4794779,84.0375236 C55.9267522,83.7350721 39.2301162,84.0650514 20.8864298,84.0375236 C27.517531,91.5244219 34.4873204,100.414878 40.2367568,109.013697 C40.2367568,109.013697 53.9102337,109.008622 56.0017218,109.013697 Z"
                          id="path-1-2" opacity="0.2" fill="#000000" fill-rule="evenodd"></path>
                </g>
            </g>
            <g id="Balloon-small" mask="url(#mask-2)">
                <g transform="translate(219.000000, 87.000000)">
                    <path d="M29,60 L29,65 C29,66.105 28.105,67 27,67 L23,67 C21.895,67 21,66.105 21,65 L21,60 L29,60 Z"
                          id="path-1" fill="#6B6761" fill-rule="evenodd"></path>
                    <g id="path-1">
                        <use fill="#F1C40F" fill-rule="evenodd" xlink:href="#path-14"></use>
                        <use fill="none" xlink:href="#path-14"></use>
                    </g>
                    <g id="path-1">
                        <use fill="#F1C40F" fill-rule="evenodd" xlink:href="#path-15"></use>
                        <use fill="none" xlink:href="#path-15"></use>
                    </g>
                    <g id="path-1">
                        <use fill="#D35400" fill-rule="evenodd" xlink:href="#path-16"></use>
                        <use fill="none" xlink:href="#path-16"></use>
                    </g>
                    <g id="path-1-4">
                        <use fill="#E67E22" fill-rule="evenodd" xlink:href="#path-17"></use>
                        <use fill="none" xlink:href="#path-17"></use>
                    </g>
                    <g id="path-1-6">
                        <use fill="#F39C12" fill-rule="evenodd" xlink:href="#path-18"></use>
                        <use fill="none" xlink:href="#path-18"></use>
                    </g>
                    <path d="M29.0321381,56.9658853 C32.5747355,52.215222 36.6396586,47.284309 39.1769248,43.9725918 C29.0050584,43.8152482 19.9309688,43.9869125 10.3880779,43.9725918 C13.8377593,47.8674825 17.8397539,52.4925424 20.830769,56.9658853 C20.830769,56.9658853 27.9440883,56.9632449 29.0321381,56.9658853 Z"
                          id="path-1-2" opacity="0.2" fill="#000000" fill-rule="evenodd"></path>
                </g>
            </g>
        </g>
    </g>
</svg>