<svg width="320px" height="240px" viewBox="0 0 320 240" version="1.1" xmlns="http://www.w3.org/2000/svg"
     xmlns:xlink="http://www.w3.org/1999/xlink">
    <!-- Generator: Sketch 3.2.2 (9983) - http://www.bohemiancoding.com/sketch -->
    <title>video</title>
    <desc>Created with Sketch.</desc>
    <defs>
        <rect id="path-1" x="0" y="0" width="320" height="240"/>
        <filter x="-50%" y="-50%" width="200%" height="200%" filterUnits="objectBoundingBox" id="filter-3">
            <feOffset dx="0" dy="2" in="SourceAlpha" result="shadowOffsetOuter1"/>
            <feGaussianBlur stdDeviation="2" in="shadowOffsetOuter1" result="shadowBlurOuter1"/>
            <feColorMatrix values="0 0 0 0 0   0 0 0 0 0   0 0 0 0 0  0 0 0 0.35 0" in="shadowBlurOuter1" type="matrix"
                           result="shadowMatrixOuter1"/>
            <feMerge>
                <feMergeNode in="shadowMatrixOuter1"/>
                <feMergeNode in="SourceGraphic"/>
            </feMerge>
        </filter>
        <filter x="-50%" y="-50%" width="200%" height="200%" filterUnits="objectBoundingBox" id="filter-4">
            <feOffset dx="0" dy="2" in="SourceAlpha" result="shadowOffsetOuter1"/>
            <feGaussianBlur stdDeviation="2" in="shadowOffsetOuter1" result="shadowBlurOuter1"/>
            <feColorMatrix values="0 0 0 0 0   0 0 0 0 0   0 0 0 0 0  0 0 0 0.35 0" in="shadowBlurOuter1" type="matrix"
                           result="shadowMatrixOuter1"/>
            <feMerge>
                <feMergeNode in="shadowMatrixOuter1"/>
                <feMergeNode in="SourceGraphic"/>
            </feMerge>
        </filter>
        <filter x="-50%" y="-50%" width="200%" height="200%" filterUnits="objectBoundingBox" id="filter-5">
            <feOffset dx="0" dy="2" in="SourceAlpha" result="shadowOffsetOuter1"/>
            <feGaussianBlur stdDeviation="2" in="shadowOffsetOuter1" result="shadowBlurOuter1"/>
            <feColorMatrix values="0 0 0 0 0   0 0 0 0 0   0 0 0 0 0  0 0 0 0.35 0" in="shadowBlurOuter1" type="matrix"
                           result="shadowMatrixOuter1"/>
            <feMerge>
                <feMergeNode in="shadowMatrixOuter1"/>
                <feMergeNode in="SourceGraphic"/>
            </feMerge>
        </filter>
        <linearGradient x1="50%" y1="2.55102041%" x2="50%" y2="100%" id="linearGradient-6">
            <stop stop-color="#FFC028" offset="1.53061224%"/>
            <stop stop-color="#F4A642" offset="100%"/>
        </linearGradient>
        <filter x="-50%" y="-50%" width="200%" height="200%" filterUnits="objectBoundingBox" id="filter-7">
            <feOffset dx="3" dy="3" in="SourceAlpha" result="shadowOffsetInner1"/>
            <feGaussianBlur stdDeviation="1" in="shadowOffsetInner1" result="shadowBlurInner1"/>
            <feComposite in="shadowBlurInner1" in2="SourceAlpha" operator="arithmetic" k2="-1" k3="1"
                         result="shadowInnerInner1"/>
            <feColorMatrix values="0 0 0 0 1   0 0 0 0 0.870588235   0 0 0 0 0.576470588  0 0 0 0.35 0"
                           in="shadowInnerInner1" type="matrix" result="shadowMatrixInner1"/>
            <feMerge>
                <feMergeNode in="SourceGraphic"/>
                <feMergeNode in="shadowMatrixInner1"/>
            </feMerge>
            <feGaussianBlur stdDeviation="0" in="SourceGraphic" result="blur"/>
        </filter>
        <linearGradient x1="50%" y1="0%" x2="50%" y2="100%" id="linearGradient-8">
            <stop stop-color="#FDC93C" offset="1.02040816%"/>
            <stop stop-color="#FFB23B" offset="97.4489796%"/>
        </linearGradient>
        <rect id="path-9" x="0" y="0" width="320" height="240"/>
    </defs>
    <g id="Page-1" stroke="none" stroke-width="1" fill="none" fill-rule="evenodd" >
        <g id="video" >

            <use id="background" fill="#69A7B8"  xlink:href="#path-1"/>
            <polygon id="Mountain-3" fill="#3B5D80" filter="url(#filter-3)"
                      points="290 136 320 173 320 240 290 240 "/>
            <polygon id="Mountain-3" fill="#304A65"
                     points="290 136 290 240 208 240 "/>
            <polygon id="Mountain-2" fill="#3B5D80" filter="url(#filter-4)"
                      points="208 82 310 240 208 240 "/>
            <polygon id="Mountain-2" fill="#304A65"
                     points="208 82 209 240 106 240 "/>
            <path d="M208,82 L228,113 C228,113 223.755861,108.960229 221.119812,109.103346 C219.490593,109.191801 219.82556,112.85858 217.790532,111.877747 C215.180578,110.619814 214.132446,103.279244 210.818871,103.092297 C209.228046,103.002545 205.039901,111.36539 203.501594,111.222605 C201.03461,110.99362 199.010111,106.843815 196.916045,106.913542 C195.128457,106.973064 189.075474,113.19559 188,113"
                  id="Mountain-2" fill="#FFFFFF"  />
            <polygon id="Mountain-1" fill="#3B5D80" filter="url(#filter-5)"
                      points="75 158 157 240 75 240 "/>
            <polygon id="Mountain-1" fill="#304A65"
                     points="75 158 75 240 0 240 "/>
            <g id="sun"  >
                <g transform="translate(21.000000, 20.000000)">
                    <path d="M53.5073515,29.0641686 L47.6947002,33.3075121 L50.2255804,40.0250139 C50.5740154,40.9514727 50.0527135,41.7914981 49.0587285,41.902241 L41.8793478,42.7017506 L40.6800833,49.7541821 C40.5153195,50.7292598 39.6401806,51.1992418 38.7245259,50.8048891 L32.0961587,47.9363781 L27.5043802,53.4438112 C26.8696344,54.2082073 25.8729483,54.1811968 25.2787182,53.3843882 L21.0029621,47.639263 L14.2341405,50.1404317 C13.2968774,50.4861657 12.4487489,49.9675648 12.335305,48.984384 L11.5303933,41.8752305 L4.40773455,40.6894713 C3.42455375,40.5274085 2.94916963,39.6576716 3.34892446,38.7501201 L6.24444593,32.1838769 L0.677589813,27.6299131 C-0.0922083407,26.9978683 -0.0651978792,26.0119865 0.737012828,25.4258594 L6.54156101,21.185217 L4.0187839,14.4893236 C3.67034895,13.5628647 4.19165086,12.7201383 5.18563584,12.6093955 L12.3596144,11.8125868 L13.5561779,4.75745429 C13.7209417,3.78237662 14.5987817,3.31239459 15.5144363,3.70674733 L22.1238963,6.56715521 L26.7264789,1.04351582 C27.3639258,0.279119764 28.3606118,0.306130225 28.9521409,1.10293884 L33.2468043,6.87237342 L40.0102239,4.37390573 C40.9474869,4.02817182 41.7956154,4.54407164 41.9090593,5.52725244 L42.7139711,12.6364059 L49.8366298,13.8221652 C50.8198106,13.986929 51.2951947,14.8539648 50.8954399,15.7615163 L48.0080216,22.3115532 L53.5667745,26.860115 C54.3392737,27.4894587 54.3122633,28.4753406 53.5073515,29.0641686 L53.5073515,29.0641686 Z"
                          id="path-1" stroke="none" fill="url(#linearGradient-6)" filter="url(#filter-7)"/>
                    <circle id="circle-1" stroke="#F99B21" stroke-width="1" fill="url(#linearGradient-8)"
                            cx="27.1231943" cy="27.2436635" r="13.2493187"/>
                </g>
            </g>
            <use id="overlay" opacity="0.2" fill="#000000"  xlink:href="#path-9"/>
            <g id="player" >
                <g transform="translate(117.000000, 89.000000)">
                    <rect id="rect-1" fill="#B03424" x="0" y="0" width="86" height="62" rx="15"/>
                    <path d="M53,32 C53,32.7553333 52.6405714,33.4153333 52.1062857,33.7746667 L52.1062857,33.7746667 L38.7685714,42.6993333 C38.7637143,42.7017778 38.7588571,42.7042222 38.754,42.7091111 L38.7491429,42.714 L38.7491429,42.714 C38.4771429,42.8948889 38.159,43 37.8214286,43 C36.816,43 36,42.076 36,40.9368889 L36,40.9368889 L36,23.0631111 L36,23.0631111 C36,21.924 36.816,21 37.8214286,21 C38.159,21 38.4771429,21.1051111 38.7491429,21.286 L38.7491429,21.286 L38.754,21.2908889 C38.7588571,21.2957778 38.7637143,21.2982222 38.7685714,21.3006667 L52.1062857,30.2253333 L52.1062857,30.2253333 C52.6405714,30.5846667 53,31.2446667 53,32 L53,32 Z"
                          id="path-1" opacity="0.8" fill="#FFFFFF"/>
                </g>
            </g>
        </g>
    </g>
</svg>