<?xml version="1.0" encoding="utf-8"?>
<!-- Generator: Adobe Illustrator 16.0.0, SVG Export Plug-In . SVG Version: 6.00 Build 0)  -->
<!DOCTYPE svg PUBLIC "-//W3C//DTD SVG 1.0//EN" "http://www.w3.org/TR/2001/REC-SVG-20010904/DTD/svg10.dtd">
<svg version="1.0" id="Layer_1" xmlns="http://www.w3.org/2000/svg" xmlns:xlink="http://www.w3.org/1999/xlink" x="0px" y="0px"
	 width="1472px" height="322px" viewBox="0 0 1472 322" enable-background="new 0 0 1472 322" xml:space="preserve">
<g>
	<g>
		<path fill="#FFFFFF" d="M97.438,58.523l0.015,231.38c-2.851-1.148-5.623-2.436-8.347-3.82c0-19.963,0-142.715,0-161.268
			l-27.862,33.146c0,35.98,0,65.563,0,107.24c0.174,0.307,0.324,0.615,0.502,0.924C11.208,214.056,26.578,130.55,89.148,98.755
			V80.372c-119.435,50.76-86.08,229.531,43.627,233.535V17.092L97.438,58.523z"/>
		<path fill="#FFFFFF" d="M183.485,80.182v18.335c65.54,32.882,77.456,119.296,26.372,169.097c0.016-38.477,0.18-86.09,0.15-109.652
			l-24.395-33.146c0.083,38.165-0.006,148.529-0.006,160.5c-1.894,1.008-6.865,3.361-10.504,4.799l0.096-231.591l-34.663-41.431
			l0.24,296.796c24.767-0.85,48.225-8.736,69.097-24.58C284.478,232.726,270.247,116.593,183.485,80.182z"/>
	</g>
</g>
<g>
	<path fill="#FFFFFF" d="M305.985,233.849c3.826,2.61,8.745,4.874,14.749,6.787c6.004,1.917,12.747,2.871,20.231,2.871
		c9.397,0,16.923-1.696,22.58-5.09c5.653-3.394,9.96-8.395,12.921-15.011c2.957-6.611,4.87-14.748,5.743-24.407
		c0.869-9.658,1.305-20.663,1.305-33.021V71.742h18.273v94.236c0,14.097-0.653,26.933-1.958,38.504
		c-1.305,11.575-4.046,21.45-8.223,29.628c-4.177,8.182-10.271,14.532-18.273,19.056c-8.007,4.523-18.795,6.787-32.369,6.787
		c-15.663,0-29.065-3.825-40.2-11.485L305.985,233.849z"/>
	<path fill="#FFFFFF" d="M445.9,257.081V71.742h62.911c14.79,0,27.711,2.439,38.765,7.309c11.049,4.874,20.271,11.485,27.67,19.839
		c7.395,8.354,12.962,18.143,16.707,29.367c3.74,11.226,5.612,23.192,5.612,35.894c0,14.096-2.088,26.847-6.265,38.242
		c-4.177,11.4-10.14,21.145-17.881,29.237c-7.746,8.092-17.058,14.356-27.932,18.795c-10.878,4.438-23.102,6.656-36.676,6.656H445.9
		z M579.292,164.15c0-11.135-1.566-21.36-4.699-30.673c-3.133-9.308-7.701-17.358-13.705-24.146s-13.358-12.049-22.058-15.793
		c-8.704-3.741-18.709-5.613-30.02-5.613h-44.638v152.97h44.638c11.486,0,21.622-1.958,30.412-5.873
		c8.786-3.916,16.14-9.309,22.058-16.185c5.915-6.873,10.397-14.966,13.444-24.277C577.766,185.254,579.292,175.114,579.292,164.15z
		"/>
	<path fill="#FFFFFF" d="M747.922,71.742h31.846l70.482,185.339h-37.068l-17.229-46.204h-64.738l-16.969,46.204h-37.067
		L747.922,71.742z M789.426,185.556l-25.582-72.83l-26.625,72.83H789.426z"/>
	<path fill="#FFFFFF" d="M905.853,259.691c-14.097,0-24.799-4.523-32.108-13.574c-7.31-9.047-10.964-22.449-10.964-40.2v-85.621
		h34.979v78.051c0,21.059,7.57,31.586,22.711,31.586c6.787,0,13.354-2.043,19.708-6.135c6.352-4.087,11.527-10.311,15.532-18.664
		v-84.838h34.979v96.585c0,3.654,0.653,6.265,1.958,7.831c1.306,1.566,3.435,2.439,6.396,2.61v29.759
		c-3.483,0.693-6.396,1.13-8.745,1.306c-2.349,0.171-4.482,0.261-6.396,0.261c-6.265,0-11.355-1.436-15.271-4.308
		c-3.916-2.871-6.225-6.827-6.918-11.877l-0.783-10.964c-6.094,9.397-13.925,16.445-23.493,21.145
		C927.865,257.342,917.338,259.691,905.853,259.691z"/>
	<path fill="#FFFFFF" d="M1077.094,259.691c-11.485,0-22.71-1.827-33.674-5.481c-10.964-3.655-20.361-8.876-28.192-15.663
		l13.052-21.927c8.354,5.918,16.486,10.4,24.407,13.443c7.917,3.047,15.793,4.568,23.624,4.568c6.959,0,12.44-1.306,16.446-3.916
		c4.001-2.61,6.004-6.351,6.004-11.225c0-4.87-2.35-8.439-7.049-10.703c-4.698-2.26-12.358-4.87-22.971-7.831
		c-8.876-2.435-16.446-4.784-22.711-7.048c-6.265-2.26-11.314-4.829-15.141-7.701c-3.83-2.871-6.615-6.175-8.354-9.919
		c-1.741-3.74-2.61-8.223-2.61-13.444c0-6.958,1.347-13.223,4.047-18.795c2.695-5.567,6.48-10.311,11.354-14.227
		c4.87-3.915,10.572-6.917,17.099-9.006c6.526-2.088,13.615-3.133,21.274-3.133c10.267,0,19.88,1.481,28.846,4.438
		c8.961,2.961,17.184,7.745,24.668,14.356l-14.096,21.145c-6.963-5.221-13.705-9.047-20.231-11.485
		c-6.525-2.436-13.011-3.654-19.447-3.654c-5.918,0-10.878,1.219-14.879,3.654c-4.006,2.438-6.004,6.354-6.004,11.747
		c0,2.438,0.477,4.438,1.436,6.004c0.954,1.565,2.479,2.961,4.568,4.177c2.088,1.219,4.829,2.394,8.223,3.523
		c3.394,1.134,7.61,2.309,12.66,3.524c9.397,2.438,17.445,4.874,24.146,7.309c6.697,2.439,12.179,5.222,16.445,8.354
		c4.263,3.133,7.396,6.746,9.397,10.833c1.999,4.092,3.002,9.006,3.002,14.749c0,13.403-4.96,23.976-14.879,31.717
		C1107.636,255.82,1094.147,259.691,1077.094,259.691z"/>
	<path fill="#FFFFFF" d="M1237.111,250.033c-4.699,2.088-10.441,4.177-17.229,6.265c-6.787,2.089-13.925,3.133-21.405,3.133
		c-4.875,0-9.442-0.612-13.705-1.827c-4.267-1.216-8.007-3.174-11.225-5.874c-3.223-2.696-5.788-6.175-7.701-10.441
		c-1.917-4.263-2.871-9.438-2.871-15.532v-78.573h-18.012v-26.887h18.012V75.918h34.979v44.377h28.715v26.887h-28.715v66.826
		c0,4.875,1.261,8.313,3.785,10.312c2.521,2.003,5.612,3.002,9.267,3.002c3.655,0,7.22-0.607,10.703-1.827
		c3.479-1.216,6.265-2.26,8.354-3.133L1237.111,250.033z"/>
	<path fill="#FFFFFF" d="M1255.381,101.239V66.521h34.979v34.718H1255.381z M1255.381,257.081V120.296h34.979v136.785H1255.381z"/>
	<path fill="#FFFFFF" d="M1449.07,257.081h-34.979v-76.746c0-10.964-1.917-18.967-5.743-24.016c-3.83-5.046-9.137-7.57-15.924-7.57
		c-3.482,0-7.048,0.697-10.702,2.088c-3.654,1.396-7.093,3.354-10.312,5.874c-3.222,2.524-6.134,5.526-8.745,9.006
		c-2.61,3.483-4.527,7.309-5.742,11.485v79.879h-34.979V120.296h31.586v25.32c5.045-8.7,12.354-15.487,21.927-20.361
		c9.569-4.87,20.361-7.309,32.369-7.309c8.525,0,15.487,1.566,20.884,4.698c5.393,3.133,9.568,7.224,12.53,12.27
		c2.957,5.049,5,10.792,6.134,17.229c1.13,6.44,1.697,12.966,1.697,19.578V257.081z"/>
</g>
</svg>
