<?xml version="1.0" encoding="UTF-8" standalone="no"?>
<svg width="385px" height="266px" viewBox="0 0 385 266" version="1.1" xmlns="http://www.w3.org/2000/svg"
     xmlns:xlink="http://www.w3.org/1999/xlink" xmlns:sketch="http://www.bohemiancoding.com/sketch/ns">
    <!-- Generator: Sketch 3.2.2 (9983) - http://www.bohemiancoding.com/sketch -->
    <title>Fade</title>
    <desc>Created with Sketch.</desc>
    <defs>
        <rect id="path-1" x="0" y="0" width="385" height="266"></rect>
        <ellipse id="path-3" cx="102.867188" cy="94.7625" rx="102.867188" ry="94.7625"></ellipse>
        <ellipse id="path-5" cx="87.828125" cy="80.9083333" rx="87.828125" ry="80.9083333"></ellipse>
        <path id="path-7"
              d="M62.1726881,0.958177406 C78.1847675,0.958177406 91.1627833,10.6828994 91.1627833,22.6743791 C91.1627833,22.6743791 82.3894378,29.913113 62.1726881,29.913113 C41.5174779,29.913113 33.1825929,22.6743791 33.1825929,22.6743791 C33.1825929,10.6828994 46.1626769,0.958177406 62.1726881,0.958177406 L62.1726881,0.958177406 Z"></path>
        <path id="path-9"
              d="M62.1726881,0.958177406 C78.1847675,0.958177406 91.1627833,10.6828994 91.1627833,22.6743791 C91.1627833,22.6743791 82.3894378,29.913113 62.1726881,29.913113 C41.5174779,29.913113 33.1825929,22.6743791 33.1825929,22.6743791 C33.1825929,10.6828994 46.1626769,0.958177406 62.1726881,0.958177406 L62.1726881,0.958177406 Z"></path>
    </defs>
    <g id="Page-1" stroke="none" stroke-width="1" fill="none" fill-rule="evenodd">
        <g id="Fade">
            <mask id="mask-2" fill="white">
                <use xlink:href="#path-1"></use>
            </mask>
            <use id="background-2" fill="#2C3652" xlink:href="#path-1"></use>
            <g id="stars" mask="url(#mask-2)">
                <g transform="translate(38.000000, 5.000000)">
                    <circle id="Oval-11" fill="#D8D8D8" cx="148" cy="112" r="1"></circle>
                    <circle id="Oval-26" fill="#D8D8D8" cx="338" cy="52" r="1"></circle>
                    <circle id="Oval-27" fill="#D8D8D8" cx="198" cy="192" r="1"></circle>
                    <circle id="Oval-12" opacity="0.5" fill="#D8D8D8" cx="174.5" cy="123.5" r="0.5"></circle>
                    <circle id="Oval-13" opacity="0.5" fill="#D8D8D8" cx="164.5" cy="92.5" r="0.5"></circle>
                    <circle id="Oval-16" fill="#D8D8D8" cx="118" cy="202" r="1"></circle>
                    <circle id="Oval-15" opacity="0.5" fill="#D8D8D8" cx="94.5" cy="213.5" r="0.5"></circle>
                    <circle id="Oval-17" opacity="0.5" fill="#D8D8D8" cx="60.5" cy="219.5" r="0.5"></circle>
                    <circle id="Oval-18" opacity="0.5" fill="#D8D8D8" cx="0.5" cy="189.5" r="0.5"></circle>
                    <circle id="Oval-19" opacity="0.5" fill="#D8D8D8" cx="29.5" cy="167.5" r="0.5"></circle>
                    <circle id="Oval-28" opacity="0.5" fill="#D8D8D8" cx="259.5" cy="147.5" r="0.5"></circle>
                    <circle id="Oval-29" opacity="0.5" fill="#D8D8D8" cx="219.5" cy="127.5" r="0.5"></circle>
                    <circle id="Oval-30" opacity="0.5" fill="#D8D8D8" cx="189.5" cy="157.5" r="0.5"></circle>
                    <circle id="Oval-31" opacity="0.5" fill="#D8D8D8" cx="169.5" cy="157.5" r="0.5"></circle>
                    <circle id="Oval-32" opacity="0.5" fill="#D8D8D8" cx="174.5" cy="151.5" r="0.5"></circle>
                    <circle id="Oval-33" opacity="0.5" fill="#D8D8D8" cx="166.5" cy="147.5" r="0.5"></circle>
                    <circle id="Oval-34" opacity="0.5" fill="#D8D8D8" cx="117.5" cy="114.5" r="0.5"></circle>
                    <circle id="Oval-35" opacity="0.5" fill="#D8D8D8" cx="157.5" cy="24.5" r="0.5"></circle>
                    <circle id="Oval-36" opacity="0.5" fill="#D8D8D8" cx="150.5" cy="12.5" r="0.5"></circle>
                    <circle id="Oval-37" opacity="0.5" fill="#D8D8D8" cx="140.5" cy="32.5" r="0.5"></circle>
                    <circle id="Oval-38" opacity="0.5" fill="#D8D8D8" cx="140.5" cy="72.5" r="0.5"></circle>
                    <circle id="Oval-39" opacity="0.5" fill="#D8D8D8" cx="221.5" cy="20.5" r="0.5"></circle>
                    <circle id="Oval-40" opacity="0.5" fill="#D8D8D8" cx="264.5" cy="10.5" r="0.5"></circle>
                    <circle id="Oval-45" opacity="0.5" fill="#D8D8D8" cx="274.5" cy="160.5" r="0.5"></circle>
                    <circle id="Oval-46" opacity="0.5" fill="#D8D8D8" cx="254.5" cy="190.5" r="0.5"></circle>
                    <circle id="Oval-47" opacity="0.5" fill="#D8D8D8" cx="192.5" cy="221.5" r="0.5"></circle>
                    <circle id="Oval-48" opacity="0.5" fill="#D8D8D8" cx="162.5" cy="241.5" r="0.5"></circle>
                    <circle id="Oval-49" opacity="0.5" fill="#D8D8D8" cx="182.5" cy="251.5" r="0.5"></circle>
                    <circle id="Oval-50" opacity="0.5" fill="#D8D8D8" cx="175.5" cy="52.5" r="0.5"></circle>
                    <circle id="Oval-41" opacity="0.5" fill="#D8D8D8" cx="324.5" cy="20.5" r="0.5"></circle>
                    <circle id="Oval-42" opacity="0.5" fill="#D8D8D8" cx="332.5" cy="16.5" r="0.5"></circle>
                    <circle id="Oval-43" opacity="0.5" fill="#D8D8D8" cx="328.5" cy="46.5" r="0.5"></circle>
                    <circle id="Oval-44" opacity="0.5" fill="#D8D8D8" cx="328.5" cy="66.5" r="0.5"></circle>
                    <circle id="Oval-20" opacity="0.5" fill="#D8D8D8" cx="9.5" cy="197.5" r="0.5"></circle>
                    <circle id="Oval-21" opacity="0.5" fill="#F1F5BB" cx="16.5" cy="229.5" r="0.5"></circle>
                    <circle id="Oval-22" opacity="0.5" fill="#D8D8D8" cx="36.5" cy="199.5" r="0.5"></circle>
                    <circle id="Oval-14" opacity="0.5" fill="#D8D8D8" cx="104.5" cy="182.5" r="0.5"></circle>
                    <circle id="Oval-23" opacity="0.5" fill="#D8D8D8" cx="104.5" cy="242.5" r="0.5"></circle>
                    <circle id="Oval-24" opacity="0.5" fill="#D8D8D8" cx="49.5" cy="248.5" r="0.5"></circle>
                    <circle id="Oval-25" opacity="0.5" fill="#D8D8D8" cx="119.5" cy="118.5" r="0.5"></circle>
                    <path d="M51.98271,184.032667 L53.055874,182.982038 L54.0339374,184.032667 L53.055874,185.058281 L51.98271,184.032667 Z"
                          id="Path-47" fill="#D8D8D8"></path>
                    <path d="M168.061347,24.032667 C169.036931,24.032667 170.055874,22.9820383 170.055874,22.0064545 C170.055874,22.9820383 171.088158,24.032667 172.038727,24.032667 C171.088158,24.032667 170.055874,24.9081906 170.055874,25.9087895 C170.055874,24.9081906 169.036931,24.032667 168.061347,24.032667 Z"
                          id="Path-48" fill="#D8D8D8"></path>
                    <path d="M218.061347,254.032667 C219.036931,254.032667 220.055874,252.982038 220.055874,252.006455 C220.055874,252.982038 221.088158,254.032667 222.038727,254.032667 C221.088158,254.032667 220.055874,254.908191 220.055874,255.908789 C220.055874,254.908191 219.036931,254.032667 218.061347,254.032667 Z"
                          id="Path-53" fill="#D8D8D8"></path>
                    <path d="M321.625911,128.370534 C322.592873,129.626493 324.687955,128.789184 323.774714,127.376241 C322.861472,125.963297 311.043054,117.014654 311.043054,117.014654 C311.043054,117.014654 320.658948,127.114576 321.625911,128.370534 Z"
                          id="Path-49" opacity="0.5" fill="#F1F5BB"></path>
                    <path d="M181.785115,228.071672 C183,227.12979 181.12048,228.129175 183,227.12979 C180.941752,225.652763 161.091495,204.03431 161.091495,204.03431 C161.091495,204.03431 180.833556,226.143953 181.785115,228.071672 Z"
                          id="Path-50" opacity="0.3" fill="#F0F1DF"></path>
                    <path d="M191.785115,232.071672 C193,231.12979 191.12048,232.129175 193,231.12979 C190.941752,229.652763 171.091495,208.03431 171.091495,208.03431 C171.091495,208.03431 190.833556,230.143953 191.785115,232.071672 Z"
                          id="Path-51" opacity="0.3" fill="#F0F1DF"></path>
                    <path d="M168.825279,23.1297907 C170.24835,24.4156259 169.032577,23.1283372 170.319866,24.2010778 C173.538088,21.4119524 189.82418,0.939927454 189.82418,0.939927454 C189.82418,0.939927454 170.96351,20.4822437 168.825279,23.1297907 Z"
                          id="Path-52" opacity="0.1" fill="#F2F5BB"></path>
                </g>
            </g>
            <g id="moon" mask="url(#mask-2)">
                <g transform="translate(-51.578125, -42.525000)">
                    <mask id="mask-4" fill="white">
                        <use xlink:href="#path-3"></use>
                    </mask>
                    <use id="circle-1" stroke="none" fill="#F2C668" fill-rule="evenodd" xlink:href="#path-3"></use>
                    <path d="M327.709385,68.2921297 C317.343027,82.9130664 292.54208,83.7781563 272.310427,70.224062 C252.082092,56.6699676 244.084998,33.8291483 254.454674,19.2082116 C264.821032,4.58727489 289.621979,3.72218497 309.853632,17.2793362 C330.081967,30.8334305 338.079061,53.671193 327.709385,68.2921297 L327.709385,68.2921297 Z M250.555676,111.482432 C249.792468,119.390515 243.18574,124.611623 235.80253,123.14739 C228.419321,121.680099 223.053635,114.083815 223.820162,106.175732 C224.586688,98.2676483 231.190098,93.0434834 238.576626,94.5107737 C245.959835,95.9750071 251.322202,103.574348 250.555676,111.482432 L250.555676,111.482432 Z M217.950096,24.5974467 C213.367528,23.6620491 210.035959,18.798593 210.510475,13.7364414 C210.98831,8.67428981 215.086406,5.33314747 219.668973,6.27160191 C224.254859,7.21005634 227.58311,12.0704555 227.108594,17.1326071 C226.630759,22.1947588 222.532663,25.5359011 217.950096,24.5974467 L217.950096,24.5974467 Z M189.353018,77.7775503 C174.065626,76.8207547 162.245854,66.6872809 162.959288,55.1384834 C163.669404,43.5927426 176.640624,35.0060374 191.931334,35.9597761 C207.218725,36.9165717 219.038497,47.0500455 218.328381,58.598843 C217.614948,70.1445838 204.643727,78.731289 189.353018,77.7775503 L189.353018,77.7775503 Z M182.802701,114.138839 C201.643987,117.5778 214.150646,135.747745 210.732801,154.721643 C207.314956,173.695541 189.27006,186.286727 170.428773,182.844708 C151.587487,179.402689 139.080828,161.232744 142.498673,142.261903 C145.916518,123.288005 163.961414,110.69682 182.802701,114.138839 L182.802701,114.138839 Z M137.229218,45.7141999 C129.003161,49.3243455 120.156583,47.7989749 117.472082,42.3119205 C114.784261,36.824866 119.277235,29.4517321 127.499973,25.8415866 C135.72603,22.2344979 144.572608,23.7568116 147.260428,29.243866 C149.94493,34.7309205 145.455275,42.1071112 137.229218,45.7141999 L137.229218,45.7141999 Z M122.018148,64.5872217 C125.698138,70.1720955 122.894178,80.6418233 115.756522,87.9721612 C108.618867,95.2994422 99.8486095,96.7117092 96.1719372,91.1237785 C92.4952648,85.5358479 95.2992252,75.0661201 102.436881,67.738839 C109.574536,60.411558 118.341475,58.999291 122.018148,64.5872217 L122.018148,64.5872217 Z M92.2032547,33.9086265 C87.6206874,32.9701721 84.2891178,28.106716 84.7669525,23.0476213 C85.2414689,17.9854696 89.3428832,14.6443273 93.9254505,15.5827817 C98.5080178,16.5181793 101.836269,21.3816354 101.361753,26.443787 C100.887236,31.5028817 96.785822,34.8470809 92.2032547,33.9086265 L92.2032547,33.9086265 Z M103.336139,135.494027 C111.529013,143.836183 112.97579,153.951316 106.571478,158.084184 C100.163848,162.217052 88.3341211,158.805602 80.1412474,150.466502 C71.9516919,142.124345 70.5049147,132.009212 76.912545,127.876344 C83.316857,123.74042 95.1465836,127.15187 103.336139,135.494027 L103.336139,135.494027 Z M3.54501225,113.998223 C-10.498018,102.917124 -9.22711048,78.7343459 6.37883735,59.9835983 C21.9881035,41.2297938 46.0258424,35.0090942 60.0688726,46.090193 C74.1119029,57.168235 72.8409954,81.3540705 57.2317292,100.104818 C41.6257814,118.858622 17.5880425,125.079322 3.54501225,113.998223 L3.54501225,113.998223 Z M129.059572,108.68541 C133.64214,109.623864 136.973709,114.48732 136.495875,119.546415 C136.021358,124.608566 131.919944,127.949709 127.337377,127.014311 C122.754809,126.075857 119.426558,121.212401 119.901074,116.150249 C120.375591,111.091154 124.477005,107.746955 129.059572,108.68541 L129.059572,108.68541 Z M286.240635,106.823785 C290.823202,107.762239 294.154772,112.625695 293.680255,117.68479 C293.202421,122.746942 289.104325,126.088084 284.521757,125.14963 C279.935872,124.214232 276.607621,119.350776 277.082137,114.288624 C277.559972,109.226473 281.658068,105.885331 286.240635,106.823785 L286.240635,106.823785 Z"
                          id="path-1" stroke="none" fill-opacity="0.13" fill="#000000" fill-rule="evenodd"
                          mask="url(#mask-4)"></path>
                </g>
            </g>
            <g id="earth" mask="url(#mask-2)">
                <g transform="translate(292.515625, 169.166667)">
                    <mask id="mask-6" fill="white">
                        <use xlink:href="#path-5"></use>
                    </mask>
                    <use id="ellipse-1" stroke="none" fill="#80CEFB" fill-rule="evenodd" xlink:href="#path-5"></use>
                    <path d="M149.509519,121.610914 C105.61941,129.311277 129.720245,107.466027 129.720245,107.466027 C129.720245,107.466027 134.506878,92.8673495 133.676503,86.250455 C132.846128,79.6335604 105.156316,86.5178042 109.92698,100.395342 C114.725589,114.353789 97.9943314,127.295604 86.1774564,121.610914 C74.3645736,115.926225 71.6538783,105.11265 74.3046908,89.7857974 C76.9515111,74.4589448 95.6389408,70.0089865 109.92698,65.0348829 C124.219011,60.0572615 134.506878,64.4544535 133.676503,57.9606803 C132.846128,51.4669071 127.440706,43.4112513 117.843488,47.3511354 C108.246269,51.2945372 89.7504642,52.8810441 90.1377064,40.2804506 C90.5249486,27.6798571 114.486058,8.68398757 125.759995,4.91647344 C137.037925,1.15247706 181.17555,47.3511354 181.17555,47.3511354 C181.17555,47.3511354 193.40362,113.910552 149.509519,121.610914 L149.509519,121.610914 Z M30.7619017,65.0348829 C22.6697377,83.7845097 23.2326361,90.1235017 26.8056439,93.3211397 C30.3786517,96.5222955 19.6995502,99.1043267 10.9726283,100.395342 C2.24570641,101.68284 7.19202672,115.159354 14.9288861,111.004887 C22.6697377,106.846902 27.8555892,108.647992 26.8056439,118.075572 C25.7556986,127.503152 30.0273392,130.081665 38.6784095,139.291144 C47.333472,148.504141 11.7471127,144.166751 -0.904129528,132.220459 C-13.5513795,120.274168 -36.8457936,44.4736129 -4.86038734,29.6709057 C12.0425345,21.8509394 26.765722,22.1921615 42.6386595,26.1355633 C58.511597,30.0789651 62.0766205,33.1112687 54.5114252,43.815793 C46.950222,54.5203173 38.858058,46.2817383 30.7619017,65.0348829 L30.7619017,65.0348829 Z"
                          id="path-1" stroke="none" fill="#5EA823" fill-rule="evenodd" mask="url(#mask-6)"></path>
                    <path d="M150.262441,148.566851 C130.588941,162.995958 78.7104647,172.122416 71.0973631,167.576207 C63.4882537,163.026216 72.9856678,154.259068 79.0138709,148.566851 C85.0460662,142.874634 98.3839647,162.160091 102.763394,156.169081 C107.146816,150.17807 166.199254,136.876059 150.262441,148.566851 L150.262441,148.566851 Z M98.8071366,-3.51556328 C87.42541,-2.21448518 93.0184647,2.74398398 90.8906287,11.6926781 C88.7627928,20.6413723 83.7166678,26.1066568 75.0576131,19.29869 C66.3985584,12.4869409 28.3051053,25.4939398 39.4313319,7.89156333 C57.6756287,-20.9666516 134.429426,-11.1177929 134.429426,-11.1177929 C135.782777,12.4680299 110.184871,-4.81664139 98.8071366,-3.51556328 L98.8071366,-3.51556328 Z"
                          id="path-1" stroke="none" fill="#FFFFFF" fill-rule="evenodd" mask="url(#mask-6)"></path>
                </g>
            </g>
            <g id="flag" mask="url(#mask-2)">
                <g transform="translate(112.416544, 146.932868) rotate(-35.000000) translate(-112.416544, -146.932868) translate(104.596232, 131.970368)">
                    <rect id="rect-1" fill="#919191" x="13.234375" y="-1.5750364e-14" width="1.203125"
                          height="19.95"></rect>
                    <path d="M-8.8817842e-15,27.7083333 C-8.8817842e-15,27.7083333 10.2265625,27.9167 14.4375,29.925 L14.4375,19.95 C8.57226562,18.0104167 -8.8817842e-15,17.7333333 -8.8817842e-15,17.7333333 L-8.8817842e-15,27.7083333 L-8.8817842e-15,27.7083333 Z"
                          id="path-1" fill="#0c92df"></path>
                    <text id="S" fill="#FFFFFF" font-family="Helvetica" font-size="8.8" font-weight="normal">
                        <tspan x="3.609375" y="26.7333333">S</tspan>
                    </text>
                </g>
            </g>
            <g id="ufo-2" mask="url(#mask-2)">
                <g transform="translate(230.664495, 110.398514) rotate(30.000000) translate(-230.664495, -110.398514) translate(168.164495, 32.398514)">
                    <path d="M94.0887109,133.442326 C95.4470806,138.968005 85.4424385,145.263402 72.1467723,149.146888 C58.8528841,153.032313 47.3014073,153.03619 45.9448155,147.510511 C44.5864458,141.984832 54.2639413,134.355517 67.5578295,130.472031 C80.8534957,126.586606 92.7321191,127.916647 94.0887109,133.442326 Z"
                          id="path-1" stroke="none" opacity="0.5" fill-opacity="0.2" fill="#C3C832" fill-rule="evenodd"
                          transform="translate(70.014956, 140.064918) rotate(10.000000) translate(-70.014956, -140.064918) "></path>
                    <path d="M99.7827995,134.072293 C100.895471,138.997232 91.0775748,144.921855 78.1386426,148.783301 C65.1997104,152.644747 54.0382757,152.983131 52.7919444,148.098798 L52.7850011,148.100732 L52.7815294,148.075595 C52.7797936,148.06786 52.7763219,148.062059 52.774586,148.054325 C52.7381335,147.909303 52.743341,147.754613 52.7277184,147.60379 L43.3611397,67.0316332 L71.5632904,58.6126365 L99.6161591,133.608224 C99.6682342,133.747445 99.7428752,133.878931 99.777592,134.025886 C99.7793278,134.031687 99.7793278,134.039422 99.7810636,134.047156 L99.7897428,134.07036 L99.7827995,134.072293 L99.7827995,134.072293 Z"
                          id="path-1" stroke="none" opacity="0.052238806" fill="#E4EA36" fill-rule="evenodd"
                          transform="translate(71.614973, 105.167319) rotate(10.000000) translate(-71.614973, -105.167319) "></path>
                    <path d="M125,40.4933653 C125,53.9574103 97.2487624,61.6201272 63.0178238,61.6201272 C28.7848171,61.6201272 1.03564769,53.9574103 1.03564769,40.4933653 C1.03564769,27.0313884 28.7848171,16.1174459 63.0178238,16.1174459 C97.2487624,16.1174459 125,27.0313884 125,40.4933653 Z"
                          id="path-1" stroke="none" fill="#169EED" fill-rule="evenodd"></path>
                    <path d="M60.7371328,48.515507 C94.9680713,48.515507 124.99434,37.8559543 124.998476,38.1744585 C125.205297,56.9372568 104.363948,63.0798396 60.7371328,62.9929748 C16.512605,62.90611 0.905894716,54.4161092 0.905894716,38.1744585 C0.905894716,37.4898811 26.504126,48.515507 60.7371328,48.515507 L60.7371328,48.515507 Z"
                          id="path-1" stroke="none" fill="#1885C6" fill-rule="evenodd"></path>
                    <path d="M100.443874,21.0360089 C115.891332,23.7355558 125.899399,32.0458991 122.795016,39.5997759 C122.795016,39.5997759 112.456036,42.6782302 92.9507504,39.2707602 C73.0214819,35.7891269 66.8520124,29.8263915 66.8520124,29.8263915 C69.9563951,22.273863 84.996416,18.3378105 100.443874,21.0360089 L100.443874,21.0360089 Z"
                          id="path-1" stroke="none" opacity="0.1" fill="#000000" fill-rule="evenodd"></path>
                    <mask id="mask-8" fill="white">
                        <use xlink:href="#path-7"></use>
                    </mask>
                    <use id="path-1" stroke-opacity="0.6" stroke="#000000" stroke-width="1" opacity="0.3" fill="#FFFFFF"
                         fill-rule="evenodd" xlink:href="#path-7"></use>
                    <path d="M42.8631652,28.0942246 C39.4495006,27.1988371 32.3960861,26.4534271 32.3960861,26.4534271 C32.3960861,12.2481053 50.0195494,1.92652663 61.9864025,1.25050911 C62.8638822,1.2012628 62.8638822,1.18559352 63.7256926,1.25050911 C52.0543173,7.7957913 46.0887985,12.3689827 42.8407806,26.4534271 C42.8407806,26.4534271 42.8273497,27.0667675 42.8631652,28.0942246 Z"
                          id="path-1" stroke="none" opacity="0.6" fill="#FFFFFF" fill-rule="evenodd"
                          mask="url(#mask-8)"></path>
                    <mask id="mask-10" fill="white">
                        <use xlink:href="#path-9"></use>
                    </mask>
                    <use id="path-1" stroke-opacity="0.6" stroke="#000000" stroke-width="1" opacity="0.2" fill="none"
                         xlink:href="#path-9"></use>
                    <path d="M50.7375567,20.6975772 L50.7375567,27.4192587 C50.7398317,29.523145 50.7375567,34.8870468 50.7443818,34.9833909 C52.6281072,34.9833909 52.6463074,32.4627604 54.5300328,32.4627604 C56.4114832,32.4627604 56.4387835,34.9833909 58.3202339,34.9833909 C60.2039593,34.9833909 60.2289846,32.4627604 62.11271,32.4627604 C63.9941603,32.4627604 64.0214607,34.9833909 65.9051861,34.9833909 C67.7866364,34.9833909 67.8139368,32.4627604 69.6953872,32.4627604 C71.5791126,32.4627604 71.5836626,34.9833909 73.465113,34.9833909 C73.4560128,34.9789098 73.4764881,29.523145 73.4855882,27.4192587 C73.4878633,27.4192587 73.4878633,20.6975772 73.4878633,20.6975772 C73.4878633,13.7383963 68.3940696,8.09666499 62.11271,8.09666499 C55.8313503,8.09666499 50.7375567,13.7383963 50.7375567,20.6975772 Z"
                          id="path-1" stroke="none" fill="#E2574C" fill-rule="evenodd" mask="url(#mask-10)"></path>
                    <rect id="Rectangle-7" stroke="none" fill="#FFFFFF" fill-rule="evenodd" mask="url(#mask-10)"
                          x="54.8739761" y="15.4377134" width="6.20462907" height="6.20462907" rx="3"></rect>
                    <rect id="Rectangle-8" stroke="none" fill="#FFFFFF" fill-rule="evenodd" mask="url(#mask-10)"
                          x="63.1468148" y="15.4377134" width="6.20462907" height="6.20462907" rx="3"></rect>
                    <rect id="Rectangle-9" stroke="none" fill="#000000" fill-rule="evenodd" mask="url(#mask-10)"
                          x="65.2150245" y="17.5059231" width="2.06820969" height="2.06820969" rx="3"></rect>
                    <rect id="Rectangle-10" stroke="none" fill="#000000" fill-rule="evenodd" mask="url(#mask-10)"
                          x="56.9421858" y="17.5059231" width="2.06820969" height="2.06820969" rx="3"></rect>
                    <path d="M48.6643935,27.8170414 C48.6643935,27.8170414 44.5329275,22.669544 44.5329276,19.6387643 C44.5329276,16.6079847 44.026382,11.1936734 48.6643936,11.1936734 C53.3024051,11.1936733 52.2462242,9.12723265 48.8021563,9.12723261 C45.3580883,9.12723258 42.0477065,10.9411083 42.0477066,18.4721366 C42.0477067,26.0031648 46.6980848,27.8170414 46.6980848,27.8170414 L48.6643935,27.8170414 Z"
                          id="Path-61" stroke="none" fill="#FF4A4A" fill-rule="evenodd" mask="url(#mask-10)"></path>
                    <path d="M79.9042594,20.0762905 C79.9042593,17.0455109 80.7328849,10.2956693 76.0948734,10.2956692 C71.4568618,10.2956692 72.5130427,8.22922847 75.9571106,8.22922843 C79.4011786,8.2292284 82.1805299,11.607974 82.1805298,19.1390023 C82.1805296,26.6700305 77.0611821,28.9190372 77.0611821,28.9190372 L75.0948734,28.9190372 C75.0948734,28.9190372 79.9042594,23.1070702 79.9042594,20.0762905 Z"
                          id="Path-63" stroke="none" fill="#FF4A4A" fill-rule="evenodd" mask="url(#mask-10)"></path>
                </g>
            </g>
            <g id="astro-2" mask="url(#mask-2)">
                <g transform="translate(219.021838, 142.104630) rotate(30.000000) translate(-219.021838, -142.104630) translate(209.396838, 128.804630)">
                    <ellipse id="circle-1" fill="#EBEBEB" cx="9.625" cy="5.54166667" rx="6.015625"
                             ry="5.54166667"></ellipse>
                    <ellipse id="circle-1" fill="#363D44" cx="9.625" cy="5.54166667" rx="4.8125"
                             ry="4.43333333"></ellipse>
                    <ellipse id="ellipse-1" opacity="0.9" fill="#FFFFFF" cx="10.828125" cy="5.54166667" rx="1.203125"
                             ry="2.21666667"></ellipse>
                    <path d="M1.77635684e-14,13.3 L4.8125,11.0833333 L14.4375,11.0833333 L19.25,8.86666667 L19.25,11.0833333 L14.4375,13.3 L13.234375,16.625 L6.015625,16.625 L4.8125,13.3 L1.77635684e-14,15.5166667 L1.77635684e-14,13.3 L1.77635684e-14,13.3 Z"
                          id="path-1" fill="#EBEBEB"></path>
                    <path d="M6.015625,17.7333333 L13.234375,17.7333333 L15.640625,26.6 L13.234375,26.6 L10.828125,21.0583333 L8.421875,21.0583333 L6.015625,26.6 L3.609375,26.6 L6.015625,17.7333333 L6.015625,17.7333333 Z"
                          id="path-1" fill="#EBEBEB"></path>
                </g>
            </g>
        </g>
    </g>
</svg>