<?xml version="1.0" encoding="UTF-8" standalone="no"?>
<svg width="385px" height="266px" viewBox="0 0 385 266" version="1.1" xmlns="http://www.w3.org/2000/svg" xmlns:xlink="http://www.w3.org/1999/xlink">
    <!-- Generator: Sketch 3.2.2 (9983) - http://www.bohemiancoding.com/sketch -->
    <title>Fade</title>
    <desc>Created with Sketch.</desc>
    <defs>
        <rect id="path-1" x="0" y="0" width="385" height="266"></rect>
        <ellipse id="path-3" cx="102.867188" cy="94.7625" rx="102.867188" ry="94.7625"></ellipse>
        <ellipse id="path-5" cx="87.828125" cy="80.9083333" rx="87.828125" ry="80.9083333"></ellipse>
        <linearGradient x1="49.056047%" y1="98.8729763%" x2="49.056047%" y2="-1.26197253%" id="linearGradient-7">
            <stop stop-color="#D75348" offset="0%"></stop>
            <stop stop-color="#E2574C" offset="100%"></stop>
        </linearGradient>
        <linearGradient x1="49.9609056%" y1="101.40922%" x2="49.9609056%" y2="1.35212293%" id="linearGradient-8">
            <stop stop-color="#D75348" offset="0%"></stop>
            <stop stop-color="#E2574C" offset="100%"></stop>
        </linearGradient>
    </defs>
    <g id="Page-1" stroke="none" stroke-width="1" fill="none" fill-rule="evenodd" >
        <g id="Fade" >
            <mask id="mask-2"  fill="white">
                <use xlink:href="#path-1"></use>
            </mask>
            <use id="background-2" fill="#2C3652"  xlink:href="#path-1"></use>
            <g id="stars" mask="url(#mask-2)" >
                <g transform="translate(38.000000, 5.000000)">
                    <circle id="Oval-11" fill="#D8D8D8" cx="148" cy="112" r="1"></circle>
                    <circle id="Oval-26" fill="#D8D8D8" cx="338" cy="52" r="1"></circle>
                    <circle id="Oval-27" fill="#D8D8D8" cx="198" cy="192" r="1"></circle>
                    <circle id="Oval-12" opacity="0.5" fill="#D8D8D8" cx="174.5" cy="123.5" r="0.5"></circle>
                    <circle id="Oval-13" opacity="0.5" fill="#D8D8D8" cx="164.5" cy="92.5" r="0.5"></circle>
                    <circle id="Oval-16" fill="#D8D8D8" cx="118" cy="202" r="1"></circle>
                    <circle id="Oval-15" opacity="0.5" fill="#D8D8D8" cx="94.5" cy="213.5" r="0.5"></circle>
                    <circle id="Oval-17" opacity="0.5" fill="#D8D8D8" cx="60.5" cy="219.5" r="0.5"></circle>
                    <circle id="Oval-18" opacity="0.5" fill="#D8D8D8" cx="0.5" cy="189.5" r="0.5"></circle>
                    <circle id="Oval-19" opacity="0.5" fill="#D8D8D8" cx="29.5" cy="167.5" r="0.5"></circle>
                    <circle id="Oval-28" opacity="0.5" fill="#D8D8D8" cx="259.5" cy="147.5" r="0.5"></circle>
                    <circle id="Oval-29" opacity="0.5" fill="#D8D8D8" cx="219.5" cy="127.5" r="0.5"></circle>
                    <circle id="Oval-30" opacity="0.5" fill="#D8D8D8" cx="189.5" cy="157.5" r="0.5"></circle>
                    <circle id="Oval-31" opacity="0.5" fill="#D8D8D8" cx="169.5" cy="157.5" r="0.5"></circle>
                    <circle id="Oval-32" opacity="0.5" fill="#D8D8D8" cx="174.5" cy="151.5" r="0.5"></circle>
                    <circle id="Oval-33" opacity="0.5" fill="#D8D8D8" cx="166.5" cy="147.5" r="0.5"></circle>
                    <circle id="Oval-34" opacity="0.5" fill="#D8D8D8" cx="117.5" cy="114.5" r="0.5"></circle>
                    <circle id="Oval-35" opacity="0.5" fill="#D8D8D8" cx="157.5" cy="24.5" r="0.5"></circle>
                    <circle id="Oval-36" opacity="0.5" fill="#D8D8D8" cx="150.5" cy="12.5" r="0.5"></circle>
                    <circle id="Oval-37" opacity="0.5" fill="#D8D8D8" cx="140.5" cy="32.5" r="0.5"></circle>
                    <circle id="Oval-38" opacity="0.5" fill="#D8D8D8" cx="140.5" cy="72.5" r="0.5"></circle>
                    <circle id="Oval-39" opacity="0.5" fill="#D8D8D8" cx="221.5" cy="20.5" r="0.5"></circle>
                    <circle id="Oval-40" opacity="0.5" fill="#D8D8D8" cx="264.5" cy="10.5" r="0.5"></circle>
                    <circle id="Oval-45" opacity="0.5" fill="#D8D8D8" cx="274.5" cy="160.5" r="0.5"></circle>
                    <circle id="Oval-46" opacity="0.5" fill="#D8D8D8" cx="254.5" cy="190.5" r="0.5"></circle>
                    <circle id="Oval-47" opacity="0.5" fill="#D8D8D8" cx="192.5" cy="221.5" r="0.5"></circle>
                    <circle id="Oval-48" opacity="0.5" fill="#D8D8D8" cx="162.5" cy="241.5" r="0.5"></circle>
                    <circle id="Oval-49" opacity="0.5" fill="#D8D8D8" cx="182.5" cy="251.5" r="0.5"></circle>
                    <circle id="Oval-50" opacity="0.5" fill="#D8D8D8" cx="175.5" cy="52.5" r="0.5"></circle>
                    <circle id="Oval-41" opacity="0.5" fill="#D8D8D8" cx="324.5" cy="20.5" r="0.5"></circle>
                    <circle id="Oval-42" opacity="0.5" fill="#D8D8D8" cx="332.5" cy="16.5" r="0.5"></circle>
                    <circle id="Oval-43" opacity="0.5" fill="#D8D8D8" cx="328.5" cy="46.5" r="0.5"></circle>
                    <circle id="Oval-44" opacity="0.5" fill="#D8D8D8" cx="328.5" cy="66.5" r="0.5"></circle>
                    <circle id="Oval-20" opacity="0.5" fill="#D8D8D8" cx="9.5" cy="197.5" r="0.5"></circle>
                    <circle id="Oval-21" opacity="0.5" fill="#F1F5BB" cx="16.5" cy="229.5" r="0.5"></circle>
                    <circle id="Oval-22" opacity="0.5" fill="#D8D8D8" cx="36.5" cy="199.5" r="0.5"></circle>
                    <circle id="Oval-14" opacity="0.5" fill="#D8D8D8" cx="104.5" cy="182.5" r="0.5"></circle>
                    <circle id="Oval-23" opacity="0.5" fill="#D8D8D8" cx="104.5" cy="242.5" r="0.5"></circle>
                    <circle id="Oval-24" opacity="0.5" fill="#D8D8D8" cx="49.5" cy="248.5" r="0.5"></circle>
                    <circle id="Oval-25" opacity="0.5" fill="#D8D8D8" cx="119.5" cy="118.5" r="0.5"></circle>
                    <path d="M51.98271,184.032667 L53.055874,182.982038 L54.0339374,184.032667 L53.055874,185.058281 L51.98271,184.032667 Z" id="Path-47" fill="#D8D8D8"></path>
                    <path d="M168.061347,24.032667 C169.036931,24.032667 170.055874,22.9820383 170.055874,22.0064545 C170.055874,22.9820383 171.088158,24.032667 172.038727,24.032667 C171.088158,24.032667 170.055874,24.9081906 170.055874,25.9087895 C170.055874,24.9081906 169.036931,24.032667 168.061347,24.032667 Z" id="Path-48" fill="#D8D8D8"></path>
                    <path d="M218.061347,254.032667 C219.036931,254.032667 220.055874,252.982038 220.055874,252.006455 C220.055874,252.982038 221.088158,254.032667 222.038727,254.032667 C221.088158,254.032667 220.055874,254.908191 220.055874,255.908789 C220.055874,254.908191 219.036931,254.032667 218.061347,254.032667 Z" id="Path-53" fill="#D8D8D8"></path>
                    <path d="M321.625911,128.370534 C322.592873,129.626493 324.687955,128.789184 323.774714,127.376241 C322.861472,125.963297 311.043054,117.014654 311.043054,117.014654 C311.043054,117.014654 320.658948,127.114576 321.625911,128.370534 Z" id="Path-49" opacity="0.5" fill="#F1F5BB"></path>
                    <path d="M181.785115,228.071672 C183,227.12979 181.12048,228.129175 183,227.12979 C180.941752,225.652763 161.091495,204.03431 161.091495,204.03431 C161.091495,204.03431 180.833556,226.143953 181.785115,228.071672 Z" id="Path-50" opacity="0.3" fill="#F0F1DF"></path>
                    <path d="M191.785115,232.071672 C193,231.12979 191.12048,232.129175 193,231.12979 C190.941752,229.652763 171.091495,208.03431 171.091495,208.03431 C171.091495,208.03431 190.833556,230.143953 191.785115,232.071672 Z" id="Path-51" opacity="0.3" fill="#F0F1DF"></path>
                    <path d="M168.825279,23.1297907 C170.24835,24.4156259 169.032577,23.1283372 170.319866,24.2010778 C173.538088,21.4119524 189.82418,0.939927454 189.82418,0.939927454 C189.82418,0.939927454 170.96351,20.4822437 168.825279,23.1297907 Z" id="Path-52" opacity="0.1" fill="#F2F5BB"></path>
                </g>
            </g>
            <g id="moon" mask="url(#mask-2)">
                <g transform="translate(-51.578125, -42.525000)">
                    <mask id="mask-4"  fill="white">
                        <use xlink:href="#path-3"></use>
                    </mask>
                    <use id="circle-1" stroke="none" fill="#F2C668" fill-rule="evenodd"  xlink:href="#path-3"></use>
                    <path d="M327.709385,68.2921297 C317.343027,82.9130664 292.54208,83.7781563 272.310427,70.224062 C252.082092,56.6699676 244.084998,33.8291483 254.454674,19.2082116 C264.821032,4.58727489 289.621979,3.72218497 309.853632,17.2793362 C330.081967,30.8334305 338.079061,53.671193 327.709385,68.2921297 L327.709385,68.2921297 Z M250.555676,111.482432 C249.792468,119.390515 243.18574,124.611623 235.80253,123.14739 C228.419321,121.680099 223.053635,114.083815 223.820162,106.175732 C224.586688,98.2676483 231.190098,93.0434834 238.576626,94.5107737 C245.959835,95.9750071 251.322202,103.574348 250.555676,111.482432 L250.555676,111.482432 Z M217.950096,24.5974467 C213.367528,23.6620491 210.035959,18.798593 210.510475,13.7364414 C210.98831,8.67428981 215.086406,5.33314747 219.668973,6.27160191 C224.254859,7.21005634 227.58311,12.0704555 227.108594,17.1326071 C226.630759,22.1947588 222.532663,25.5359011 217.950096,24.5974467 L217.950096,24.5974467 Z M189.353018,77.7775503 C174.065626,76.8207547 162.245854,66.6872809 162.959288,55.1384834 C163.669404,43.5927426 176.640624,35.0060374 191.931334,35.9597761 C207.218725,36.9165717 219.038497,47.0500455 218.328381,58.598843 C217.614948,70.1445838 204.643727,78.731289 189.353018,77.7775503 L189.353018,77.7775503 Z M182.802701,114.138839 C201.643987,117.5778 214.150646,135.747745 210.732801,154.721643 C207.314956,173.695541 189.27006,186.286727 170.428773,182.844708 C151.587487,179.402689 139.080828,161.232744 142.498673,142.261903 C145.916518,123.288005 163.961414,110.69682 182.802701,114.138839 L182.802701,114.138839 Z M137.229218,45.7141999 C129.003161,49.3243455 120.156583,47.7989749 117.472082,42.3119205 C114.784261,36.824866 119.277235,29.4517321 127.499973,25.8415866 C135.72603,22.2344979 144.572608,23.7568116 147.260428,29.243866 C149.94493,34.7309205 145.455275,42.1071112 137.229218,45.7141999 L137.229218,45.7141999 Z M122.018148,64.5872217 C125.698138,70.1720955 122.894178,80.6418233 115.756522,87.9721612 C108.618867,95.2994422 99.8486095,96.7117092 96.1719372,91.1237785 C92.4952648,85.5358479 95.2992252,75.0661201 102.436881,67.738839 C109.574536,60.411558 118.341475,58.999291 122.018148,64.5872217 L122.018148,64.5872217 Z M92.2032547,33.9086265 C87.6206874,32.9701721 84.2891178,28.106716 84.7669525,23.0476213 C85.2414689,17.9854696 89.3428832,14.6443273 93.9254505,15.5827817 C98.5080178,16.5181793 101.836269,21.3816354 101.361753,26.443787 C100.887236,31.5028817 96.785822,34.8470809 92.2032547,33.9086265 L92.2032547,33.9086265 Z M103.336139,135.494027 C111.529013,143.836183 112.97579,153.951316 106.571478,158.084184 C100.163848,162.217052 88.3341211,158.805602 80.1412474,150.466502 C71.9516919,142.124345 70.5049147,132.009212 76.912545,127.876344 C83.316857,123.74042 95.1465836,127.15187 103.336139,135.494027 L103.336139,135.494027 Z M3.54501225,113.998223 C-10.498018,102.917124 -9.22711048,78.7343459 6.37883735,59.9835983 C21.9881035,41.2297938 46.0258424,35.0090942 60.0688726,46.090193 C74.1119029,57.168235 72.8409954,81.3540705 57.2317292,100.104818 C41.6257814,118.858622 17.5880425,125.079322 3.54501225,113.998223 L3.54501225,113.998223 Z M129.059572,108.68541 C133.64214,109.623864 136.973709,114.48732 136.495875,119.546415 C136.021358,124.608566 131.919944,127.949709 127.337377,127.014311 C122.754809,126.075857 119.426558,121.212401 119.901074,116.150249 C120.375591,111.091154 124.477005,107.746955 129.059572,108.68541 L129.059572,108.68541 Z M286.240635,106.823785 C290.823202,107.762239 294.154772,112.625695 293.680255,117.68479 C293.202421,122.746942 289.104325,126.088084 284.521757,125.14963 C279.935872,124.214232 276.607621,119.350776 277.082137,114.288624 C277.559972,109.226473 281.658068,105.885331 286.240635,106.823785 L286.240635,106.823785 Z" id="path-1" stroke="none" fill-opacity="0.13" fill="#000000" fill-rule="evenodd"  mask="url(#mask-4)"></path>
                </g>
            </g>
            <g id="earth" mask="url(#mask-2)">
                <g transform="translate(292.515625, 169.166667)">
                    <mask id="mask-6"  fill="white">
                        <use xlink:href="#path-5"></use>
                    </mask>
                    <use id="ellipse-1" stroke="none" fill="#80CEFB" fill-rule="evenodd"  xlink:href="#path-5"></use>
                    <path d="M149.509519,121.610914 C105.61941,129.311277 129.720245,107.466027 129.720245,107.466027 C129.720245,107.466027 134.506878,92.8673495 133.676503,86.250455 C132.846128,79.6335604 105.156316,86.5178042 109.92698,100.395342 C114.725589,114.353789 97.9943314,127.295604 86.1774564,121.610914 C74.3645736,115.926225 71.6538783,105.11265 74.3046908,89.7857974 C76.9515111,74.4589448 95.6389408,70.0089865 109.92698,65.0348829 C124.219011,60.0572615 134.506878,64.4544535 133.676503,57.9606803 C132.846128,51.4669071 127.440706,43.4112513 117.843488,47.3511354 C108.246269,51.2945372 89.7504642,52.8810441 90.1377064,40.2804506 C90.5249486,27.6798571 114.486058,8.68398757 125.759995,4.91647344 C137.037925,1.15247706 181.17555,47.3511354 181.17555,47.3511354 C181.17555,47.3511354 193.40362,113.910552 149.509519,121.610914 L149.509519,121.610914 Z M30.7619017,65.0348829 C22.6697377,83.7845097 23.2326361,90.1235017 26.8056439,93.3211397 C30.3786517,96.5222955 19.6995502,99.1043267 10.9726283,100.395342 C2.24570641,101.68284 7.19202672,115.159354 14.9288861,111.004887 C22.6697377,106.846902 27.8555892,108.647992 26.8056439,118.075572 C25.7556986,127.503152 30.0273392,130.081665 38.6784095,139.291144 C47.333472,148.504141 11.7471127,144.166751 -0.904129528,132.220459 C-13.5513795,120.274168 -36.8457936,44.4736129 -4.86038734,29.6709057 C12.0425345,21.8509394 26.765722,22.1921615 42.6386595,26.1355633 C58.511597,30.0789651 62.0766205,33.1112687 54.5114252,43.815793 C46.950222,54.5203173 38.858058,46.2817383 30.7619017,65.0348829 L30.7619017,65.0348829 Z" id="path-1" stroke="none" fill="#5EA823" fill-rule="evenodd"  mask="url(#mask-6)"></path>
                    <path d="M150.262441,148.566851 C130.588941,162.995958 78.7104647,172.122416 71.0973631,167.576207 C63.4882537,163.026216 72.9856678,154.259068 79.0138709,148.566851 C85.0460662,142.874634 98.3839647,162.160091 102.763394,156.169081 C107.146816,150.17807 166.199254,136.876059 150.262441,148.566851 L150.262441,148.566851 Z M98.8071366,-3.51556328 C87.42541,-2.21448518 93.0184647,2.74398398 90.8906287,11.6926781 C88.7627928,20.6413723 83.7166678,26.1066568 75.0576131,19.29869 C66.3985584,12.4869409 28.3051053,25.4939398 39.4313319,7.89156333 C57.6756287,-20.9666516 134.429426,-11.1177929 134.429426,-11.1177929 C135.782777,12.4680299 110.184871,-4.81664139 98.8071366,-3.51556328 L98.8071366,-3.51556328 Z" id="path-1" stroke="none" fill="#FFFFFF" fill-rule="evenodd"  mask="url(#mask-6)"></path>
                </g>
            </g>
            <g id="astro" mask="url(#mask-2)" >
                <g transform="translate(124.021838, 136.104630) rotate(138.000000) translate(-124.021838, -136.104630) translate(114.396838, 122.804630)">
                    <ellipse id="circle-1" fill="#EBEBEB" cx="9.625" cy="5.54166667" rx="6.015625" ry="5.54166667"></ellipse>
                    <ellipse id="circle-1" fill="#363D44" cx="9.625" cy="5.54166667" rx="4.8125" ry="4.43333333"></ellipse>
                    <ellipse id="ellipse-1" opacity="0.9" fill="#FFFFFF" cx="10.828125" cy="5.54166667" rx="1.203125" ry="2.21666667"></ellipse>
                    <path d="M1.77635684e-14,13.3 L4.8125,11.0833333 L14.4375,11.0833333 L19.25,8.86666667 L19.25,11.0833333 L14.4375,13.3 L13.234375,16.625 L6.015625,16.625 L4.8125,13.3 L1.77635684e-14,15.5166667 L1.77635684e-14,13.3 L1.77635684e-14,13.3 Z" id="path-1" fill="#EBEBEB"></path>
                    <path d="M6.015625,17.7333333 L13.234375,17.7333333 L15.640625,26.6 L13.234375,26.6 L10.828125,21.0583333 L8.421875,21.0583333 L6.015625,26.6 L3.609375,26.6 L6.015625,17.7333333 L6.015625,17.7333333 Z" id="path-1" fill="#EBEBEB"></path>
                </g>
            </g>
            <g id="flag" mask="url(#mask-2)">
                <g transform="translate(112.416544, 146.932868) rotate(-35.000000) translate(-112.416544, -146.932868) translate(104.596232, 131.970368)">
                    <rect id="rect-1" fill="#919191"  x="13.234375" y="-1.5750364e-14" width="1.203125" height="19.95"></rect>
                    <path d="M-8.8817842e-15,27.7083333 C-8.8817842e-15,27.7083333 10.2265625,27.9167 14.4375,29.925 L14.4375,19.95 C8.57226562,18.0104167 -8.8817842e-15,17.7333333 -8.8817842e-15,17.7333333 L-8.8817842e-15,27.7083333 L-8.8817842e-15,27.7083333 Z" id="path-1" fill="#0c92df" ></path>
                    <text id="S" fill="#FFFFFF"  font-family="Helvetica" font-size="8.8" font-weight="normal">
                        <tspan x="3.609375" y="26.7333333">S</tspan>
                    </text>
                </g>
            </g>
            <g id="rocket" mask="url(#mask-2)" >
                <g transform="translate(249.203125, 42.816667)">
                    <path d="M29.4492503,51.1997253 C31.4452347,53.0329086 32.0480003,56.0497919 30.0520159,57.8829753 C28.0548284,59.7172669 22.0380003,61.7610336 20.0408128,59.9267419 C18.0448284,58.0924503 20.2694066,52.5651919 22.2653909,50.7309003 C24.2625784,48.8966086 27.4532659,49.3643253 29.4492503,51.1997253 L29.4492503,51.1997253 Z" id="path-1" fill="#EC9F25"></path>
                    <path d="M56.8579243,49.5670077 C56.8579243,49.5670077 55.0375962,64.1504577 53.7346118,67.459941 C52.8190337,69.7863327 40.4027837,75.5308244 34.74569,77.4992244 C33.523315,77.923716 32.4332837,76.653566 33.16719,75.656066 C35.7238306,72.1825494 41.1968462,65.548066 40.9092993,62.8237827 C40.4388775,58.3583077 37.4202368,56.3887994 37.4202368,56.3887994 L56.8579243,49.5670077 L56.8579243,49.5670077 Z" id="path-1" fill="url(#linearGradient-7)"></path>
                    <path d="M31.4441189,26.7164961 C31.4441189,26.7164961 15.6194158,28.3934044 12.0280876,29.5937294 C9.50393139,30.4371711 3.26933764,41.8807128 1.13499389,47.0932044 C0.672993888,48.2203794 2.05177514,49.2234211 3.13458764,48.5473378 C6.90397826,46.1921294 14.1034783,41.1481044 17.0595564,41.4129961 C21.9045408,41.8474628 24.0424939,44.6282711 24.0424939,44.6282711 L31.4441189,26.7164961 L31.4441189,26.7164961 Z" id="path-1" fill="url(#linearGradient-8)"></path>
                    <path d="M38.8191626,59.3190928 C31.902397,52.9450678 30.574147,51.7214678 30.3515689,51.5153178 C30.3515689,51.5153178 30.3455532,51.5108845 30.3311157,51.4964761 C30.3251001,51.4909345 30.3178814,51.4853928 30.3106626,51.4776345 C30.0868814,51.2714845 28.7586314,50.0478845 21.8418657,43.6738595 C30.6836314,18.2985678 52.7032251,7.78048447 53.6753501,7.47680114 C54.8989282,7.05452614 56.0563345,7.20415114 56.0563345,7.20415114 L67.226147,17.4961345 L78.3947564,27.7892261 C78.3947564,27.7892261 78.5571782,28.8565511 78.0987876,29.9837261 C77.7691314,30.8792595 66.3550845,51.1717345 38.8191626,59.3190928 L38.8191626,59.3190928 Z" id="path-1" fill="#EBEBEB"></path>
                    <path d="M78.7528067,27.9514798 C78.3256973,27.5580215 77.0756504,26.4519048 77.0756504,26.4519048 L67.2461192,17.3946048 L57.4177911,8.33619647 C57.4177911,8.33619647 56.3000879,7.27108814 55.8729786,6.87762981 C70.1985879,-0.957178525 81.5994004,0.498063141 81.9675567,0.535746475 C82.4704629,0.585621475 83.7566036,0.815046475 84.4977286,1.49667147 C85.2376504,2.17940481 85.4866973,3.36532147 85.5408379,3.82860481 C85.5817442,4.16775481 87.2552911,14.7501215 78.7528067,27.9514798 L78.7528067,27.9514798 Z" id="path-1" fill="#E0564B"></path>
                    <path d="M38.1569864,57.6388216 C37.1401611,58.6087041 34.1577165,59.2402285 33.0898677,58.2228368 L22.3676453,47.9909818 C21.3010113,46.9735901 22.0262738,44.1948825 23.0430991,43.225 L38.1569864,57.6388216 Z" id="path-1" fill="#A6B0B7"></path>
                    <path d="M50.1882364,57.6969311 C49.1714111,58.6668136 46.1889665,59.298338 45.1211177,58.2809463 L22.3676453,36.965758 C21.3010113,35.9483663 22.0262738,33.1696587 23.0430991,32.1997762 L50.1882364,57.6969311 Z" id="path-1-3" fill="#DE564B"></path>
                    <path d="M62.6475826,22.1189303 C65.6975045,24.9318803 65.6975045,29.4937803 62.6475826,32.3067303 C59.5976607,35.1196803 54.6540201,35.1196803 51.6040982,32.3067303 C48.5541763,29.4937803 48.5541763,24.9318803 51.6040982,22.1189303 C54.6540201,19.304872 59.5976607,19.304872 62.6475826,22.1189303 L62.6475826,22.1189303 Z" id="path-1" fill="#324D5B"></path>
                    <path d="M60.126011,24.4109117 C61.7704963,25.926654 61.7704963,28.3816793 60.126011,29.8974217 C58.4815257,31.4119706 55.8153493,31.4119706 54.170864,29.8974217 C52.5263787,28.3816793 52.5263787,25.926654 54.170864,24.4109117 C55.8153493,22.8963628 58.4815257,22.8963628 60.126011,24.4109117 L60.126011,24.4109117 Z" id="path-1" fill="#CCD0D2"></path>
                </g>
            </g>
        </g>
    </g>
</svg>